<svg xmlns="http://www.w3.org/2000/svg" fill="none" viewBox="0 0 301 50" class="v-icon notranslate v-theme--customTheme v-icon--size-default" style=""><path fill="#EC1C24" fill-rule="evenodd" d="m.656 19.344 5.82 4.18H23.36l2.95-9.262 3.033 9.263H46.23l5.82-4.18H32.376L26.311.737l-6.065 18.606H.656Zm41.557 30.082L36.148 30.82l4.098-2.951h-9.508l3.442 10.574-7.869-5.738-7.868 5.738 3.524-10.574H12.46l4.098 2.95-6.065 18.607 15.82-11.557 15.901 11.557Z" clip-rule="evenodd"></path><path fill="#fff" fill-rule="evenodd" d="M293.361 12.131c-.219.437-.328.956-.328 1.557 0 .602.109 1.12.328 1.558.164.437.41.82.737 1.147.328.274.711.492 1.148.656.437.164.929.246 1.475.246.492 0 .957-.082 1.394-.246a3.932 3.932 0 0 0 1.147-.656c.328-.327.601-.71.82-1.147.164-.437.246-.956.246-1.558 0-.6-.082-1.12-.246-1.557-.219-.492-.492-.874-.82-1.147a3.185 3.185 0 0 0-1.147-.738 3.938 3.938 0 0 0-1.394-.246c-.491 0-.983.082-1.475.246a3.19 3.19 0 0 0-1.148.738c-.327.273-.573.655-.737 1.147Zm.737 2.787c-.109-.328-.164-.738-.164-1.23 0-.491.055-.901.164-1.229.164-.383.356-.683.574-.902.273-.218.574-.41.902-.573a3.63 3.63 0 0 1 1.147-.164c.383 0 .738.054 1.066.164.328.164.601.355.82.573.273.219.491.52.655.902.11.328.164.738.164 1.23 0 .491-.054.901-.164 1.229-.164.383-.355.683-.573.902a2.911 2.911 0 0 1-.902.491c-.328.11-.683.164-1.066.164-.382 0-.765-.054-1.147-.164a2.06 2.06 0 0 1-.82-.491 3.468 3.468 0 0 1-.656-.902Zm1.804-3.115c-.274 0-.492.028-.656.082v3.525h.738v-1.558l.655.164.984 1.394h.82l-.984-1.476-.41-.163c.273-.055.519-.137.738-.246.164-.164.246-.41.246-.738 0-.383-.137-.656-.41-.82-.273-.164-.601-.246-.984-.246-.218 0-.464.028-.737.082Zm.328.574h.245c.547 0 .82.164.82.492 0 .218-.082.355-.246.41-.109.109-.3.164-.574.164h-.491v-.984a.635.635 0 0 0 .246-.082Zm-94.509 23.525c-5.082 0-9.344-3.361-9.344-8.443 0-5.082 4.262-8.525 9.344-8.525 5 0 9.345 3.443 9.345 8.525 0 5.082-4.345 8.443-9.345 8.443Zm0-3.115c3.115 0 5.574-1.967 5.574-5.328 0-3.36-2.459-5.41-5.574-5.41-3.196 0-5.573 2.05-5.573 5.41 0 3.36 2.377 5.328 5.573 5.328ZM79.344 35.492l-7.13-16.148h-6.066l-7.295 16.148h4.016l1.066-2.46h10.327l1.066 2.46h4.016Zm-6.639-5.656h-7.377l3.115-7.295h1.23l3.032 7.295Zm25.738-4.18c0-3.77-2.951-6.312-6.886-6.312h-9.836v16.148h3.77v-3.607h6.066c3.935 0 6.886-2.377 6.886-6.23Zm-7.05 2.95h-5.901v-5.983h5.901c1.968 0 3.28 1.147 3.28 3.033 0 1.885-1.312 2.95-3.28 2.95Zm14.509-9.262 5.819 11.722h.164l6.148-11.722h4.754v16.148h-3.689V24.18h-.164l-5.655 11.312h-3.115l-5.492-11.312h-.164v11.312h-3.606V19.344h5Zm24.262 11.23v-11.23h-3.689v16.148h3.689L140 24.344v11.148h3.771V19.344h-3.689l-9.918 11.23Zm32.705 4.918h-3.771v-3.607h-6.147l-1.967 3.607h-4.099l2.541-4.426c-1.967-.984-3.196-2.87-3.196-5.41 0-3.77 2.95-6.312 6.885-6.312h9.754v16.148Zm-9.672-12.87c-1.885 0-3.197 1.148-3.197 3.034 0 1.803 1.312 2.869 3.197 2.869h5.901v-5.902h-5.901Zm38.115 3.034c0-3.77-2.951-6.312-6.804-6.312h-9.836v16.148h3.771v-3.607h6.065c3.853 0 6.804-2.377 6.804-6.23Zm-6.968 2.95h-5.901v-5.983h5.901c1.886 0 3.197 1.147 3.197 3.033 0 1.885-1.311 2.95-3.197 2.95Zm37.213-6.393c2.623 0 4.345.984 5.574 2.705l2.951-1.64c-1.721-2.868-4.59-4.344-8.443-4.344-5.245 0-9.344 3.28-9.344 8.525 0 5.246 4.017 8.443 9.344 8.443 3.853 0 6.722-1.476 8.443-4.263L227.131 30c-1.229 1.721-2.951 2.705-5.574 2.705-3.278 0-5.491-2.131-5.491-5.246 0-3.197 2.131-5.246 5.491-5.246Zm24.181 2.705c-1.23-1.721-2.951-2.705-5.574-2.705-3.361 0-5.492 2.05-5.492 5.246 0 3.115 2.213 5.246 5.492 5.246 2.623 0 4.344-.984 5.574-2.705l2.951 1.64c-1.722 2.786-4.591 4.262-8.443 4.262-5.328 0-9.344-3.197-9.344-8.443 0-5.246 4.098-8.525 9.344-8.525 3.852 0 6.721 1.476 8.443 4.345l-2.951 1.639Zm8.688 5.656v-11.23h-3.688v16.148h3.688l9.836-11.148v11.148h3.771V19.344h-3.689l-9.918 11.23Zm20.328-11.23v11.23l9.918-11.23h3.689v16.148h-3.771V24.344l-9.836 11.148h-3.688V19.344h3.688Z" clip-rule="evenodd"></path></svg>